<?xml version="1.0" encoding="UTF-8"?>
<svg xmlns="http://www.w3.org/2000/svg" xmlns:xlink="http://www.w3.org/1999/xlink" width="3000" height="3000" viewBox="0 0 3000 3000">
<rect x="-300" y="-300" width="3600" height="3600" fill="rgb(0.392151%, 9.423828%, 14.892578%)" fill-opacity="1"/>
<path fill-rule="nonzero" fill="rgb(1.567078%, 94.921875%, 94.921875%)" fill-opacity="1" d="M 2741.691406 753.558594 L 2857.375 753.558594 L 2857.375 845.242188 L 2741.691406 845.242188 Z M 1566.699219 842.03125 C 1563.109375 842.03125 1560.191406 844.941406 1560.191406 848.539062 C 1560.191406 852.140625 1563.109375 855.058594 1566.699219 855.058594 C 1570.300781 855.058594 1573.210938 852.140625 1573.210938 848.539062 C 1573.210938 844.941406 1570.300781 842.03125 1566.699219 842.03125 Z M 1593.109375 842.230469 C 1589.511719 842.230469 1586.589844 845.148438 1586.589844 848.75 C 1586.589844 852.339844 1589.511719 855.261719 1593.109375 855.261719 C 1596.699219 855.261719 1599.621094 852.339844 1599.621094 848.75 C 1599.621094 845.148438 1596.699219 842.230469 1593.109375 842.230469 Z M 1540.441406 842.910156 C 1536.851562 842.910156 1533.929688 845.820312 1533.929688 849.421875 C 1533.929688 853.019531 1536.851562 855.929688 1540.441406 855.929688 C 1544.039062 855.929688 1546.960938 853.019531 1546.960938 849.421875 C 1546.960938 845.820312 1544.039062 842.910156 1540.441406 842.910156 Z M 1619.261719 843.519531 C 1615.660156 843.519531 1612.75 846.429688 1612.75 850.03125 C 1612.75 853.621094 1615.660156 856.539062 1619.261719 856.539062 C 1622.859375 856.539062 1625.769531 853.621094 1625.769531 850.03125 C 1625.769531 846.429688 1622.859375 843.519531 1619.261719 843.519531 Z M 1514.460938 844.851562 C 1510.871094 844.851562 1507.949219 847.761719 1507.949219 851.359375 C 1507.949219 854.960938 1510.871094 857.871094 1514.460938 857.871094 C 1518.058594 857.871094 1520.980469 854.960938 1520.980469 851.359375 C 1520.980469 847.761719 1518.058594 844.851562 1514.460938 844.851562 Z M 1645.238281 845.859375 C 1641.640625 845.859375 1638.730469 848.769531 1638.730469 852.371094 C 1638.730469 855.96875 1641.640625 858.878906 1645.238281 858.878906 C 1648.839844 858.878906 1651.75 855.96875 1651.75 852.371094 C 1651.75 848.769531 1648.839844 845.859375 1645.238281 845.859375 Z M 1488.378906 847.878906 C 1484.78125 847.878906 1481.859375 850.800781 1481.859375 854.390625 C 1481.859375 857.988281 1484.78125 860.910156 1488.378906 860.910156 C 1491.96875 860.910156 1494.890625 857.988281 1494.890625 854.390625 C 1494.890625 850.800781 1491.96875 847.878906 1488.378906 847.878906 Z M 1671.28125 849.308594 C 1667.679688 849.308594 1664.769531 852.21875 1664.769531 855.820312 C 1664.769531 859.410156 1667.679688 862.328125 1671.28125 862.328125 C 1674.878906 862.328125 1677.789062 859.410156 1677.789062 855.820312 C 1677.789062 852.21875 1674.878906 849.308594 1671.28125 849.308594 Z M 1462.550781 851.980469 C 1458.949219 851.980469 1456.039062 854.898438 1456.039062 858.5 C 1456.039062 862.089844 1458.949219 865.011719 1462.550781 865.011719 C 1466.140625 865.011719 1469.058594 862.089844 1469.058594 858.5 C 1469.058594 854.898438 1466.140625 851.980469 1462.550781 851.980469 Z M 1696.980469 853.800781 C 1693.378906 853.800781 1690.46875 856.710938 1690.46875 860.308594 C 1690.46875 863.910156 1693.378906 866.820312 1696.980469 866.820312 C 1700.570312 866.820312 1703.488281 863.910156 1703.488281 860.308594 C 1703.488281 856.710938 1700.570312 853.800781 1696.980469 853.800781 Z M 1436.910156 857.160156 C 1433.320312 857.160156 1430.398438 860.070312 1430.398438 863.671875 C 1430.398438 867.269531 1433.320312 870.179688 1436.910156 870.179688 C 1440.511719 870.179688 1443.429688 867.269531 1443.429688 863.671875 C 1443.429688 860.070312 1440.511719 857.160156 1436.910156 857.160156 Z M 1722.609375 859.390625 C 1719.011719 859.390625 1716.101562 862.308594 1716.101562 865.910156 C 1716.101562 869.5 1719.011719 872.421875 1722.609375 872.421875 C 1726.210938 872.421875 1729.121094 869.5 1729.121094 865.910156 C 1729.121094 862.308594 1726.210938 859.390625 1722.609375 859.390625 Z M 2103.53125 653.238281 C 2095.710938 653.238281 2089.378906 659.578125 2089.378906 667.398438 C 2089.378906 675.21875 2095.710938 681.558594 2103.53125 681.558594 L 2313.671875 681.558594 L 2429.519531 797.410156 C 2432.179688 800.070312 2435.78125 801.558594 2439.53125 801.558594 L 2713.378906 801.558594 L 2713.378906 859.398438 C 2713.378906 863.160156 2714.859375 866.761719 2717.519531 869.410156 C 2720.179688 872.070312 2723.78125 873.558594 2727.53125 873.558594 L 2871.53125 873.558594 C 2879.351562 873.558594 2885.691406 867.21875 2885.691406 859.398438 L 2885.691406 739.398438 C 2885.691406 731.578125 2879.351562 725.238281 2871.53125 725.238281 L 2727.53125 725.238281 C 2723.78125 725.238281 2720.179688 726.730469 2717.519531 729.390625 C 2714.859375 732.039062 2713.378906 735.640625 2713.378906 739.398438 L 2713.378906 773.238281 L 2445.398438 773.238281 L 2329.539062 657.390625 C 2326.890625 654.730469 2323.289062 653.238281 2319.53125 653.238281 Z M 1411.449219 863.410156 C 1407.859375 863.410156 1404.941406 866.328125 1404.941406 869.929688 C 1404.941406 873.519531 1407.859375 876.441406 1411.449219 876.441406 C 1415.050781 876.441406 1417.96875 873.519531 1417.96875 869.929688 C 1417.96875 866.328125 1415.050781 863.410156 1411.449219 863.410156 Z M 1747.910156 866.039062 C 1744.320312 866.039062 1741.398438 868.960938 1741.398438 872.550781 C 1741.398438 876.148438 1744.320312 879.070312 1747.910156 879.070312 C 1751.511719 879.070312 1754.429688 876.148438 1754.429688 872.550781 C 1754.429688 868.960938 1751.511719 866.039062 1747.910156 866.039062 Z M 1386.398438 870.699219 C 1382.800781 870.699219 1379.890625 873.621094 1379.890625 877.210938 C 1379.890625 880.808594 1382.800781 883.730469 1386.398438 883.730469 C 1390 883.730469 1392.910156 880.808594 1392.910156 877.210938 C 1392.910156 873.621094 1390 870.699219 1386.398438 870.699219 Z M 1772.910156 873.738281 C 1769.308594 873.738281 1766.398438 876.648438 1766.398438 880.25 C 1766.398438 883.851562 1769.308594 886.761719 1772.910156 886.761719 C 1776.511719 886.761719 1779.421875 883.851562 1779.421875 880.25 C 1779.421875 876.648438 1776.511719 873.738281 1772.910156 873.738281 Z M 1361.519531 879.078125 C 1357.929688 879.078125 1355.011719 881.988281 1355.011719 885.589844 C 1355.011719 889.191406 1357.929688 892.101562 1361.519531 892.101562 C 1365.121094 892.101562 1368.039062 889.191406 1368.039062 885.589844 C 1368.039062 881.988281 1365.121094 879.078125 1361.519531 879.078125 Z M 1797.609375 882.488281 C 1794.019531 882.488281 1791.101562 885.410156 1791.101562 889 C 1791.101562 892.601562 1794.019531 895.519531 1797.609375 895.519531 C 1801.210938 895.519531 1804.128906 892.601562 1804.128906 889 C 1804.128906 885.410156 1801.210938 882.488281 1797.609375 882.488281 Z M 1337.121094 888.449219 C 1333.519531 888.449219 1330.609375 891.371094 1330.609375 894.960938 C 1330.609375 898.558594 1333.519531 901.480469 1337.121094 901.480469 C 1340.71875 901.480469 1343.628906 898.558594 1343.628906 894.960938 C 1343.628906 891.371094 1340.71875 888.449219 1337.121094 888.449219 Z M 1821.839844 892.238281 C 1818.25 892.238281 1815.328125 895.160156 1815.328125 898.75 C 1815.328125 902.351562 1818.25 905.269531 1821.839844 905.269531 C 1825.441406 905.269531 1828.359375 902.351562 1828.359375 898.75 C 1828.359375 895.160156 1825.441406 892.238281 1821.839844 892.238281 Z M 1313.078125 898.859375 C 1309.480469 898.859375 1306.570312 901.769531 1306.570312 905.371094 C 1306.570312 908.96875 1309.480469 911.878906 1313.078125 911.878906 C 1316.679688 911.878906 1319.589844 908.96875 1319.589844 905.371094 C 1319.589844 901.769531 1316.679688 898.859375 1313.078125 898.859375 Z M 1845.75 903.039062 C 1842.148438 903.039062 1839.230469 905.960938 1839.230469 909.550781 C 1839.230469 913.148438 1842.148438 916.070312 1845.75 916.070312 C 1849.339844 916.070312 1852.261719 913.148438 1852.261719 909.550781 C 1852.261719 905.960938 1849.339844 903.039062 1845.75 903.039062 Z M 1289.519531 910.25 C 1285.921875 910.25 1283 913.171875 1283 916.769531 C 1283 920.359375 1285.921875 923.28125 1289.519531 923.28125 C 1293.109375 923.28125 1296.03125 920.359375 1296.03125 916.769531 C 1296.03125 913.171875 1293.109375 910.25 1289.519531 910.25 Z M 1869.109375 914.789062 C 1865.511719 914.789062 1862.589844 917.710938 1862.589844 921.308594 C 1862.589844 924.898438 1865.511719 927.820312 1869.109375 927.820312 C 1872.699219 927.820312 1875.621094 924.898438 1875.621094 921.308594 C 1875.621094 917.710938 1872.699219 914.789062 1869.109375 914.789062 Z M 1266.460938 922.609375 C 1262.859375 922.609375 1259.941406 925.53125 1259.941406 929.121094 C 1259.941406 932.71875 1262.859375 935.640625 1266.460938 935.640625 C 1270.058594 935.640625 1272.96875 932.71875 1272.96875 929.121094 C 1272.96875 925.53125 1270.058594 922.609375 1266.460938 922.609375 Z M 1891.988281 927.53125 C 1888.390625 927.53125 1885.480469 930.441406 1885.480469 934.039062 C 1885.480469 937.640625 1888.390625 940.558594 1891.988281 940.558594 C 1895.589844 940.558594 1898.5 937.640625 1898.5 934.039062 C 1898.5 930.441406 1895.589844 927.53125 1891.988281 927.53125 Z M 1243.910156 935.941406 C 1240.308594 935.941406 1237.390625 938.859375 1237.390625 942.449219 C 1237.390625 946.050781 1240.308594 948.96875 1243.910156 948.96875 C 1247.5 948.96875 1250.421875 946.050781 1250.421875 942.449219 C 1250.421875 938.859375 1247.5 935.941406 1243.910156 935.941406 Z M 1914.320312 941.199219 C 1910.71875 941.199219 1907.800781 944.109375 1907.800781 947.710938 C 1907.800781 951.308594 1910.71875 954.21875 1914.320312 954.21875 C 1917.910156 954.21875 1920.828125 951.308594 1920.828125 947.710938 C 1920.828125 944.109375 1917.910156 941.199219 1914.320312 941.199219 Z M 1221.960938 950.171875 C 1218.371094 950.171875 1215.449219 953.089844 1215.449219 956.679688 C 1215.449219 960.28125 1218.371094 963.191406 1221.960938 963.191406 C 1225.558594 963.191406 1228.480469 960.28125 1228.480469 956.679688 C 1228.480469 953.089844 1225.558594 950.171875 1221.960938 950.171875 Z M 1936.050781 955.78125 C 1932.449219 955.78125 1929.539062 958.691406 1929.539062 962.289062 C 1929.539062 965.890625 1932.449219 968.808594 1936.050781 968.808594 C 1939.640625 968.808594 1942.558594 965.890625 1942.558594 962.289062 C 1942.558594 958.691406 1939.640625 955.78125 1936.050781 955.78125 Z M 1200.589844 965.328125 C 1197 965.328125 1194.078125 968.238281 1194.078125 971.839844 C 1194.078125 975.441406 1197 978.351562 1200.589844 978.351562 C 1204.191406 978.351562 1207.109375 975.441406 1207.109375 971.839844 C 1207.109375 968.238281 1204.191406 965.328125 1200.589844 965.328125 Z M 1957.171875 971.261719 C 1953.570312 971.261719 1950.660156 974.179688 1950.660156 977.769531 C 1950.660156 981.371094 1953.570312 984.28125 1957.171875 984.28125 C 1960.769531 984.28125 1963.679688 981.371094 1963.679688 977.769531 C 1963.679688 974.179688 1960.769531 971.261719 1957.171875 971.261719 Z M 1179.890625 981.339844 C 1176.300781 981.339844 1173.378906 984.25 1173.378906 987.851562 C 1173.378906 991.441406 1176.300781 994.359375 1179.890625 994.359375 C 1183.488281 994.359375 1186.410156 991.441406 1186.410156 987.851562 C 1186.410156 984.25 1183.488281 981.339844 1179.890625 981.339844 Z M 1977.609375 987.589844 C 1974.019531 987.589844 1971.101562 990.5 1971.101562 994.101562 C 1971.101562 997.691406 1974.019531 1000.609375 1977.609375 1000.609375 C 1981.210938 1000.609375 1984.128906 997.691406 1984.128906 994.101562 C 1984.128906 990.5 1981.210938 987.589844 1977.609375 987.589844 Z M 1159.859375 998.191406 C 1156.269531 998.191406 1153.351562 1001.109375 1153.351562 1004.710938 C 1153.351562 1008.308594 1156.269531 1011.21875 1159.859375 1011.21875 C 1163.460938 1011.21875 1166.378906 1008.308594 1166.378906 1004.710938 C 1166.378906 1001.109375 1163.460938 998.191406 1159.859375 998.191406 Z M 1581.160156 912.789062 L 1576.960938 912.808594 C 1576.871094 912.808594 1576.78125 912.808594 1576.691406 912.808594 C 1564.121094 912.808594 1548.96875 913.519531 1531.238281 914.929688 L 1534.898438 995.671875 C 1550.609375 994.28125 1566.179688 993.589844 1581.601562 993.589844 C 1628.058594 993.589844 1673.179688 999.878906 1716.949219 1012.460938 L 1754.550781 939.460938 C 1699.609375 921.910156 1641.820312 913.019531 1581.160156 912.789062 Z M 1997.378906 1004.761719 C 1993.789062 1004.761719 1990.871094 1007.679688 1990.871094 1011.269531 C 1990.871094 1014.871094 1993.789062 1017.78125 1997.378906 1017.78125 C 2000.980469 1017.78125 2003.898438 1014.871094 2003.898438 1011.269531 C 2003.898438 1007.679688 2000.980469 1004.761719 1997.378906 1004.761719 Z M 1140.550781 1015.871094 C 1136.949219 1015.871094 1134.039062 1018.78125 1134.039062 1022.378906 C 1134.039062 1025.980469 1136.949219 1028.890625 1140.550781 1028.890625 C 1144.140625 1028.890625 1147.058594 1025.980469 1147.058594 1022.378906 C 1147.058594 1018.78125 1144.140625 1015.871094 1140.550781 1015.871094 Z M 2016.421875 1022.730469 C 2012.820312 1022.730469 2009.910156 1025.648438 2009.910156 1029.238281 C 2009.910156 1032.839844 2012.820312 1035.761719 2016.421875 1035.761719 C 2020.019531 1035.761719 2022.929688 1032.839844 2022.929688 1029.238281 C 2022.929688 1025.648438 2020.019531 1022.730469 2016.421875 1022.730469 Z M 1121.980469 1034.320312 C 1118.390625 1034.320312 1115.46875 1037.238281 1115.46875 1040.828125 C 1115.46875 1044.429688 1118.390625 1047.351562 1121.980469 1047.351562 C 1125.578125 1047.351562 1128.5 1044.429688 1128.5 1040.828125 C 1128.5 1037.238281 1125.578125 1034.320312 1121.980469 1034.320312 Z M 2034.691406 1041.46875 C 2031.101562 1041.46875 2028.179688 1044.390625 2028.179688 1047.980469 C 2028.179688 1051.578125 2031.101562 1054.5 2034.691406 1054.5 C 2038.289062 1054.5 2041.210938 1051.578125 2041.210938 1047.980469 C 2041.210938 1044.390625 2038.289062 1041.46875 2034.691406 1041.46875 Z M 1104.191406 1053.53125 C 1100.601562 1053.53125 1097.679688 1056.441406 1097.679688 1060.039062 C 1097.679688 1063.640625 1100.601562 1066.550781 1104.191406 1066.550781 C 1107.789062 1066.550781 1110.710938 1063.640625 1110.710938 1060.039062 C 1110.710938 1056.441406 1107.789062 1053.53125 1104.191406 1053.53125 Z M 1484.941406 920.820312 L 1465.519531 924.449219 C 1452.640625 927.089844 1439.929688 930.148438 1427.378906 933.628906 C 1420.878906 934.871094 1402.46875 941 1372.160156 952.050781 C 1336.109375 966.191406 1302.058594 983.648438 1269.96875 1004.429688 L 1313.660156 1072.328125 C 1366.421875 1038.039062 1424.738281 1014.671875 1488.628906 1002.191406 Z M 2052.179688 1060.949219 C 2048.589844 1060.949219 2045.671875 1063.871094 2045.671875 1067.460938 C 2045.671875 1071.058594 2048.589844 1073.980469 2052.179688 1073.980469 C 2055.78125 1073.980469 2058.699219 1071.058594 2058.699219 1067.460938 C 2058.699219 1063.871094 2055.78125 1060.949219 2052.179688 1060.949219 Z M 1087.210938 1073.460938 C 1083.609375 1073.460938 1080.691406 1076.371094 1080.691406 1079.96875 C 1080.691406 1083.570312 1083.609375 1086.480469 1087.210938 1086.480469 C 1090.808594 1086.480469 1093.71875 1083.570312 1093.71875 1079.96875 C 1093.71875 1076.371094 1090.808594 1073.460938 1087.210938 1073.460938 Z M 2068.851562 1081.140625 C 2065.25 1081.140625 2062.339844 1084.058594 2062.339844 1087.648438 C 2062.339844 1091.25 2065.25 1094.160156 2068.851562 1094.160156 C 2072.449219 1094.160156 2075.359375 1091.25 2075.359375 1087.648438 C 2075.359375 1084.058594 2072.449219 1081.140625 2068.851562 1081.140625 Z M 1071.070312 1094.058594 C 1067.480469 1094.058594 1064.558594 1096.96875 1064.558594 1100.570312 C 1064.558594 1104.171875 1067.480469 1107.078125 1071.070312 1107.078125 C 1074.671875 1107.078125 1077.589844 1104.171875 1077.589844 1100.570312 C 1077.589844 1096.96875 1074.671875 1094.058594 1071.070312 1094.058594 Z M 2084.671875 1102 C 2081.070312 1102 2078.148438 1104.910156 2078.148438 1108.511719 C 2078.148438 1112.109375 2081.070312 1115.019531 2084.671875 1115.019531 C 2088.261719 1115.019531 2091.179688 1112.109375 2091.179688 1108.511719 C 2091.179688 1104.910156 2088.261719 1102 2084.671875 1102 Z M 1055.789062 1115.328125 C 1052.191406 1115.328125 1049.28125 1118.25 1049.28125 1121.839844 C 1049.28125 1125.441406 1052.191406 1128.359375 1055.789062 1128.359375 C 1059.390625 1128.359375 1062.308594 1125.441406 1062.308594 1121.839844 C 1062.308594 1118.25 1059.390625 1115.328125 1055.789062 1115.328125 Z M 1798.628906 955.441406 L 1761.5 1027.558594 C 1824.140625 1052.480469 1879.121094 1088.179688 1926.441406 1134.628906 L 1995.988281 1090.179688 C 1940.160156 1031.789062 1874.378906 986.878906 1798.628906 955.441406 Z M 2099.609375 1123.5 C 2096.019531 1123.5 2093.101562 1126.421875 2093.101562 1130.019531 C 2093.101562 1133.609375 2096.019531 1136.53125 2099.609375 1136.53125 C 2103.210938 1136.53125 2106.128906 1133.609375 2106.128906 1130.019531 C 2106.128906 1126.421875 2103.210938 1123.5 2099.609375 1123.5 Z M 1041.429688 1137.191406 C 1037.828125 1137.191406 1034.910156 1140.109375 1034.910156 1143.699219 C 1034.910156 1147.300781 1037.828125 1150.21875 1041.429688 1150.21875 C 1045.019531 1150.21875 1047.941406 1147.300781 1047.941406 1143.699219 C 1047.941406 1140.109375 1045.019531 1137.191406 1041.429688 1137.191406 Z M 2113.640625 1145.578125 C 2110.039062 1145.578125 2107.121094 1148.5 2107.121094 1152.101562 C 2107.121094 1155.691406 2110.039062 1158.609375 2113.640625 1158.609375 C 2117.230469 1158.609375 2120.148438 1155.691406 2120.148438 1152.101562 C 2120.148438 1148.5 2117.230469 1145.578125 2113.640625 1145.578125 Z M 1027.960938 1159.660156 C 1024.371094 1159.660156 1021.449219 1162.570312 1021.449219 1166.171875 C 1021.449219 1169.769531 1024.371094 1172.679688 1027.960938 1172.679688 C 1031.558594 1172.679688 1034.480469 1169.769531 1034.480469 1166.171875 C 1034.480469 1162.570312 1031.558594 1159.660156 1027.960938 1159.660156 Z M 2126.75 1168.269531 C 2123.160156 1168.269531 2120.238281 1171.191406 2120.238281 1174.789062 C 2120.238281 1178.378906 2123.160156 1181.300781 2126.75 1181.300781 C 2130.351562 1181.300781 2133.269531 1178.378906 2133.269531 1174.789062 C 2133.269531 1171.191406 2130.351562 1168.269531 2126.75 1168.269531 Z M 1015.460938 1182.640625 C 1011.859375 1182.640625 1008.941406 1185.558594 1008.941406 1189.160156 C 1008.941406 1192.75 1011.859375 1195.671875 1015.460938 1195.671875 C 1019.050781 1195.671875 1021.96875 1192.75 1021.96875 1189.160156 C 1021.96875 1185.558594 1019.050781 1182.640625 1015.460938 1182.640625 Z M 2138.878906 1191.429688 C 2135.289062 1191.429688 2132.371094 1194.339844 2132.371094 1197.941406 C 2132.371094 1201.539062 2135.289062 1204.449219 2138.878906 1204.449219 C 2142.480469 1204.449219 2145.398438 1201.539062 2145.398438 1197.941406 C 2145.398438 1194.339844 2142.480469 1191.429688 2138.878906 1191.429688 Z M 1003.921875 1206.128906 C 1000.320312 1206.128906 997.40625 1209.050781 997.40625 1212.640625 C 997.40625 1216.238281 1000.320312 1219.160156 1003.921875 1219.160156 C 1007.519531 1219.160156 1010.429688 1216.238281 1010.429688 1212.640625 C 1010.429688 1209.050781 1007.519531 1206.128906 1003.921875 1206.128906 Z M 2150.058594 1215.121094 C 2146.46875 1215.121094 2143.550781 1218.039062 2143.550781 1221.628906 C 2143.550781 1225.230469 2146.46875 1228.140625 2150.058594 1228.140625 C 2153.660156 1228.140625 2156.570312 1225.230469 2156.570312 1221.628906 C 2156.570312 1218.039062 2153.660156 1215.121094 2150.058594 1215.121094 Z M 1231.929688 1031.28125 L 1216.898438 1043.230469 C 1187.171875 1067.699219 1160.140625 1094.871094 1135.839844 1124.738281 C 1116.210938 1150.050781 1104.839844 1165.539062 1101.730469 1171.230469 C 1094.660156 1181.960938 1087.949219 1192.929688 1081.601562 1204.140625 L 1153.339844 1241.339844 C 1185.238281 1186.121094 1226.058594 1138.828125 1275.800781 1099.449219 Z M 993.355469 1230.121094 C 989.761719 1230.121094 986.84375 1233.039062 986.84375 1236.640625 C 986.84375 1240.230469 989.761719 1243.148438 993.355469 1243.148438 C 996.953125 1243.148438 999.871094 1240.230469 999.871094 1236.640625 C 999.871094 1233.039062 996.953125 1230.121094 993.355469 1230.121094 Z M 2160.230469 1239.230469 C 2156.628906 1239.230469 2153.71875 1242.148438 2153.71875 1245.75 C 2153.71875 1249.339844 2156.628906 1252.261719 2160.230469 1252.261719 C 2163.820312 1252.261719 2166.738281 1249.339844 2166.738281 1245.75 C 2166.738281 1242.148438 2163.820312 1239.230469 2160.230469 1239.230469 Z M 983.839844 1254.449219 C 980.242188 1254.449219 977.328125 1257.371094 977.328125 1260.960938 C 977.328125 1264.558594 980.242188 1267.480469 983.839844 1267.480469 C 987.4375 1267.480469 990.351562 1264.558594 990.351562 1260.960938 C 990.351562 1257.371094 987.4375 1254.449219 983.839844 1254.449219 Z M 2169.378906 1263.75 C 2165.78125 1263.75 2162.859375 1266.660156 2162.859375 1270.261719 C 2162.859375 1273.859375 2165.78125 1276.769531 2169.378906 1276.769531 C 2172.96875 1276.769531 2175.890625 1273.859375 2175.890625 1270.261719 C 2175.890625 1266.660156 2172.96875 1263.75 2169.378906 1263.75 Z M 975.3125 1279.261719 C 971.714844 1279.261719 968.800781 1282.179688 968.800781 1285.769531 C 968.800781 1289.371094 971.714844 1292.289062 975.3125 1292.289062 C 978.910156 1292.289062 981.828125 1289.371094 981.828125 1285.769531 C 981.828125 1282.179688 978.910156 1279.261719 975.3125 1279.261719 Z M 2177.5 1288.679688 C 2173.910156 1288.679688 2170.988281 1291.589844 2170.988281 1295.191406 C 2170.988281 1298.789062 2173.910156 1301.699219 2177.5 1301.699219 C 2181.101562 1301.699219 2184.019531 1298.789062 2184.019531 1295.191406 C 2184.019531 1291.589844 2181.101562 1288.679688 2177.5 1288.679688 Z M 967.867188 1304.300781 C 964.269531 1304.300781 961.355469 1307.210938 961.355469 1310.808594 C 961.355469 1314.410156 964.269531 1317.320312 967.867188 1317.320312 C 971.464844 1317.320312 974.378906 1314.410156 974.378906 1310.808594 C 974.378906 1307.210938 971.464844 1304.300781 967.867188 1304.300781 Z M 2184.550781 1313.820312 C 2180.949219 1313.820312 2178.039062 1316.730469 2178.039062 1320.328125 C 2178.039062 1323.929688 2180.949219 1326.839844 2184.550781 1326.839844 C 2188.148438 1326.839844 2191.058594 1323.929688 2191.058594 1320.328125 C 2191.058594 1316.730469 2188.148438 1313.820312 2184.550781 1313.820312 Z M 961.457031 1329.691406 C 957.859375 1329.691406 954.945312 1332.609375 954.945312 1336.210938 C 954.945312 1339.808594 957.859375 1342.71875 961.457031 1342.71875 C 965.054688 1342.71875 967.96875 1339.808594 967.96875 1336.210938 C 967.96875 1332.609375 965.054688 1329.691406 961.457031 1329.691406 Z M 2027.089844 1125.5 L 1958.558594 1169.308594 C 2002.289062 1221.160156 2034.140625 1280.351562 2054.128906 1346.890625 L 2136.789062 1342.910156 C 2115.308594 1261.511719 2078.738281 1189.039062 2027.089844 1125.5 Z M 2190.570312 1339.371094 C 2186.96875 1339.371094 2184.058594 1342.28125 2184.058594 1345.878906 C 2184.058594 1349.480469 2186.96875 1352.390625 2190.570312 1352.390625 C 2194.171875 1352.390625 2197.078125 1349.480469 2197.078125 1345.878906 C 2197.078125 1342.28125 2194.171875 1339.371094 2190.570312 1339.371094 Z M 956.117188 1355.328125 C 952.523438 1355.328125 949.605469 1358.238281 949.605469 1361.839844 C 949.605469 1365.441406 952.523438 1368.359375 956.117188 1368.359375 C 959.714844 1368.359375 962.632812 1365.441406 962.632812 1361.839844 C 962.632812 1358.238281 959.714844 1355.328125 956.117188 1355.328125 Z M 2195.488281 1365 C 2191.890625 1365 2188.980469 1367.910156 2188.980469 1371.511719 C 2188.980469 1375.109375 2191.890625 1378.019531 2195.488281 1378.019531 C 2199.089844 1378.019531 2202 1375.109375 2202 1371.511719 C 2202 1367.910156 2199.089844 1365 2195.488281 1365 Z M 951.863281 1381.109375 C 948.265625 1381.109375 945.351562 1384.019531 945.351562 1387.621094 C 945.351562 1391.210938 948.265625 1394.128906 951.863281 1394.128906 C 955.460938 1394.128906 958.375 1391.210938 958.375 1387.621094 C 958.375 1384.019531 955.460938 1381.109375 951.863281 1381.109375 Z M 2199.351562 1390.910156 C 2195.75 1390.910156 2192.839844 1393.820312 2192.839844 1397.421875 C 2192.839844 1401.019531 2195.75 1403.929688 2199.351562 1403.929688 C 2202.949219 1403.929688 2205.859375 1401.019531 2205.859375 1397.421875 C 2205.859375 1393.820312 2202.949219 1390.910156 2199.351562 1390.910156 Z M 948.664062 1407.21875 C 945.066406 1407.21875 942.152344 1410.140625 942.152344 1413.730469 C 942.152344 1417.328125 945.066406 1420.25 948.664062 1420.25 C 952.261719 1420.25 955.175781 1417.328125 955.175781 1413.730469 C 955.175781 1410.140625 952.261719 1407.21875 948.664062 1407.21875 Z M 2202.128906 1416.960938 C 2198.539062 1416.960938 2195.621094 1419.871094 2195.621094 1423.46875 C 2195.621094 1427.070312 2198.539062 1429.980469 2202.128906 1429.980469 C 2205.730469 1429.980469 2208.640625 1427.070312 2208.640625 1423.46875 C 2208.640625 1419.871094 2205.730469 1416.960938 2202.128906 1416.960938 Z M 946.570312 1433.160156 C 942.972656 1433.160156 940.058594 1436.070312 940.058594 1439.671875 C 940.058594 1443.269531 942.972656 1446.179688 946.570312 1446.179688 C 950.167969 1446.179688 953.082031 1443.269531 953.082031 1439.671875 C 953.082031 1436.070312 950.167969 1433.160156 946.570312 1433.160156 Z M 2203.828125 1443 C 2200.230469 1443 2197.320312 1445.921875 2197.320312 1449.519531 C 2197.320312 1453.109375 2200.230469 1456.03125 2203.828125 1456.03125 C 2207.429688 1456.03125 2210.339844 1453.109375 2210.339844 1449.519531 C 2210.339844 1445.921875 2207.429688 1443 2203.828125 1443 Z M 945.535156 1459.371094 C 941.941406 1459.371094 939.023438 1462.289062 939.023438 1465.890625 C 939.023438 1469.480469 941.941406 1472.398438 945.535156 1472.398438 C 949.132812 1472.398438 952.050781 1469.480469 952.050781 1465.890625 C 952.050781 1462.289062 949.132812 1459.371094 945.535156 1459.371094 Z M 2204.460938 1469.320312 C 2200.859375 1469.320312 2197.949219 1472.238281 2197.949219 1475.839844 C 2197.949219 1479.429688 2200.859375 1482.351562 2204.460938 1482.351562 C 2208.058594 1482.351562 2210.96875 1479.429688 2210.96875 1475.839844 C 2210.96875 1472.238281 2208.058594 1469.320312 2204.460938 1469.320312 Z M 1060.328125 1245.511719 L 1052.160156 1264 C 1036.359375 1301.398438 1024.628906 1340.570312 1016.988281 1381.5 C 1014.46875 1395.109375 1012.441406 1408.890625 1010.890625 1422.828125 L 1008.960938 1443.839844 C 1007.921875 1457.929688 1007.398438 1472.140625 1007.398438 1486.488281 L 1088.148438 1482.601562 C 1089.210938 1410.859375 1103.871094 1344.230469 1132.101562 1282.730469 Z M 945.582031 1485.789062 C 941.984375 1485.789062 939.066406 1488.699219 939.066406 1492.300781 C 939.066406 1495.890625 941.984375 1498.808594 945.582031 1498.808594 C 949.175781 1498.808594 952.09375 1495.890625 952.09375 1492.300781 C 952.09375 1488.699219 949.175781 1485.789062 945.582031 1485.789062 Z M 2203.921875 1497.839844 C 2200.320312 1497.839844 2197.410156 1500.761719 2197.410156 1504.359375 C 2197.410156 1507.949219 2200.320312 1510.871094 2203.921875 1510.871094 C 2207.519531 1510.871094 2210.429688 1507.949219 2210.429688 1504.359375 C 2210.429688 1500.761719 2207.519531 1497.839844 2203.921875 1497.839844 Z M 946.703125 1511.980469 C 943.105469 1511.980469 940.191406 1514.898438 940.191406 1518.5 C 940.191406 1522.089844 943.105469 1525.011719 946.703125 1525.011719 C 950.300781 1525.011719 953.214844 1522.089844 953.214844 1518.5 C 953.214844 1514.898438 950.300781 1511.980469 946.703125 1511.980469 Z M 2202.308594 1523.910156 C 2198.71875 1523.910156 2195.800781 1526.820312 2195.800781 1530.421875 C 2195.800781 1534.019531 2198.71875 1536.929688 2202.308594 1536.929688 C 2205.910156 1536.929688 2208.820312 1534.019531 2208.820312 1530.421875 C 2208.820312 1526.820312 2205.910156 1523.910156 2202.308594 1523.910156 Z M 948.886719 1537.929688 C 945.289062 1537.929688 942.371094 1540.851562 942.371094 1544.441406 C 942.371094 1548.039062 945.289062 1550.960938 948.886719 1550.960938 C 952.480469 1550.960938 955.398438 1548.039062 955.398438 1544.441406 C 955.398438 1540.851562 952.480469 1537.929688 948.886719 1537.929688 Z M 2199.621094 1549.941406 C 2196.019531 1549.941406 2193.109375 1552.859375 2193.109375 1556.460938 C 2193.109375 1560.058594 2196.019531 1562.96875 2199.621094 1562.96875 C 2203.21875 1562.96875 2206.128906 1560.058594 2206.128906 1556.460938 C 2206.128906 1552.859375 2203.21875 1549.941406 2199.621094 1549.941406 Z M 952.171875 1564.019531 C 948.578125 1564.019531 945.660156 1566.941406 945.660156 1570.539062 C 945.660156 1574.128906 948.578125 1577.050781 952.171875 1577.050781 C 955.769531 1577.050781 958.6875 1574.128906 958.6875 1570.539062 C 958.6875 1566.941406 955.769531 1564.019531 952.171875 1564.019531 Z M 2195.851562 1575.878906 C 2192.25 1575.878906 2189.339844 1578.800781 2189.339844 1582.390625 C 2189.339844 1585.988281 2192.25 1588.910156 2195.851562 1588.910156 C 2199.449219 1588.910156 2202.359375 1585.988281 2202.359375 1582.390625 C 2202.359375 1578.800781 2199.449219 1575.878906 2195.851562 1575.878906 Z M 956.515625 1589.769531 C 952.917969 1589.769531 950.003906 1592.691406 950.003906 1596.28125 C 950.003906 1599.878906 952.917969 1602.800781 956.515625 1602.800781 C 960.113281 1602.800781 963.027344 1599.878906 963.027344 1596.28125 C 963.027344 1592.691406 960.113281 1589.769531 956.515625 1589.769531 Z M 2191.019531 1601.511719 C 2187.421875 1601.511719 2184.511719 1604.429688 2184.511719 1608.019531 C 2184.511719 1611.621094 2187.421875 1614.539062 2191.019531 1614.539062 C 2194.621094 1614.539062 2197.53125 1611.621094 2197.53125 1608.019531 C 2197.53125 1604.429688 2194.621094 1601.511719 2191.019531 1601.511719 Z M 961.945312 1615.398438 C 958.347656 1615.398438 955.433594 1618.320312 955.433594 1621.921875 C 955.433594 1625.511719 958.347656 1628.429688 961.945312 1628.429688 C 965.542969 1628.429688 968.457031 1625.511719 968.457031 1621.921875 C 968.457031 1618.320312 965.542969 1615.398438 961.945312 1615.398438 Z M 2185.089844 1627.101562 C 2181.488281 1627.101562 2178.570312 1630.011719 2178.570312 1633.609375 C 2178.570312 1637.210938 2181.488281 1640.121094 2185.089844 1640.121094 C 2188.679688 1640.121094 2191.601562 1637.210938 2191.601562 1633.609375 C 2191.601562 1630.011719 2188.679688 1627.101562 2185.089844 1627.101562 Z M 2146.648438 1389.011719 L 2065.300781 1392.929688 C 2069.390625 1415.769531 2071.828125 1433.769531 2072.609375 1446.929688 C 2074.261719 1468.570312 2074.621094 1489.109375 2073.699219 1508.550781 C 2072.03125 1545.070312 2066.609375 1580.371094 2057.441406 1614.421875 L 2130.601562 1652.359375 C 2143.890625 1608.5 2151.769531 1562.78125 2154.21875 1515.210938 C 2156.429688 1475.039062 2153.910156 1432.96875 2146.648438 1389.011719 Z M 968.441406 1640.769531 C 964.84375 1640.769531 961.925781 1643.679688 961.925781 1647.28125 C 961.925781 1650.878906 964.84375 1653.789062 968.441406 1653.789062 C 972.035156 1653.789062 974.953125 1650.878906 974.953125 1647.28125 C 974.953125 1643.679688 972.035156 1640.769531 968.441406 1640.769531 Z M 2178.121094 1652.269531 C 2174.519531 1652.269531 2171.609375 1655.179688 2171.609375 1658.78125 C 2171.609375 1662.378906 2174.519531 1665.289062 2178.121094 1665.289062 C 2181.71875 1665.289062 2184.628906 1662.378906 2184.628906 1658.78125 C 2184.628906 1655.179688 2181.71875 1652.269531 2178.121094 1652.269531 Z M 975.976562 1665.789062 C 972.378906 1665.789062 969.464844 1668.699219 969.464844 1672.300781 C 969.464844 1675.898438 972.378906 1678.820312 975.976562 1678.820312 C 979.574219 1678.820312 982.488281 1675.898438 982.488281 1672.300781 C 982.488281 1668.699219 979.574219 1665.789062 975.976562 1665.789062 Z M 2170.078125 1677.210938 C 2166.480469 1677.210938 2163.570312 1680.128906 2163.570312 1683.730469 C 2163.570312 1687.320312 2166.480469 1690.238281 2170.078125 1690.238281 C 2173.679688 1690.238281 2176.589844 1687.320312 2176.589844 1683.730469 C 2176.589844 1680.128906 2173.679688 1677.210938 2170.078125 1677.210938 Z M 984.582031 1690.558594 C 980.988281 1690.558594 978.070312 1693.480469 978.070312 1697.070312 C 978.070312 1700.671875 980.988281 1703.589844 984.582031 1703.589844 C 988.179688 1703.589844 991.097656 1700.671875 991.097656 1697.070312 C 991.097656 1693.480469 988.179688 1690.558594 984.582031 1690.558594 Z M 2161.019531 1701.769531 C 2157.421875 1701.769531 2154.5 1704.679688 2154.5 1708.28125 C 2154.5 1711.878906 2157.421875 1714.789062 2161.019531 1714.789062 C 2164.609375 1714.789062 2167.53125 1711.878906 2167.53125 1708.28125 C 2167.53125 1704.679688 2164.609375 1701.769531 2161.019531 1701.769531 Z M 994.183594 1714.851562 C 990.585938 1714.851562 987.667969 1717.769531 987.667969 1721.359375 C 987.667969 1724.960938 990.585938 1727.871094 994.183594 1727.871094 C 997.777344 1727.871094 1000.691406 1724.960938 1000.691406 1721.359375 C 1000.691406 1717.769531 997.777344 1714.851562 994.183594 1714.851562 Z M 2150.941406 1725.910156 C 2147.339844 1725.910156 2144.429688 1728.820312 2144.429688 1732.421875 C 2144.429688 1736.019531 2147.339844 1738.929688 2150.941406 1738.929688 C 2154.539062 1738.929688 2157.449219 1736.019531 2157.449219 1732.421875 C 2157.449219 1728.820312 2154.539062 1725.910156 2150.941406 1725.910156 Z M 1004.828125 1738.808594 C 1001.230469 1738.808594 998.320312 1741.730469 998.320312 1745.328125 C 998.320312 1748.921875 1001.230469 1751.839844 1004.828125 1751.839844 C 1008.429688 1751.839844 1011.339844 1748.921875 1011.339844 1745.328125 C 1011.339844 1741.730469 1008.429688 1738.808594 1004.828125 1738.808594 Z M 2139.839844 1749.640625 C 2136.238281 1749.640625 2133.328125 1752.558594 2133.328125 1756.148438 C 2133.328125 1759.75 2136.238281 1762.660156 2139.839844 1762.660156 C 2143.441406 1762.660156 2146.351562 1759.75 2146.351562 1756.148438 C 2146.351562 1752.558594 2143.441406 1749.640625 2139.839844 1749.640625 Z M 1089.941406 1529.089844 L 1009.25 1532.980469 C 1016.960938 1620.949219 1042.011719 1701.238281 1084.390625 1773.839844 L 1152.5 1730.300781 C 1117.578125 1669.460938 1096.730469 1602.390625 1089.941406 1529.089844 Z M 1016.441406 1762.25 C 1012.851562 1762.25 1009.929688 1765.171875 1009.929688 1768.769531 C 1009.929688 1772.359375 1012.851562 1775.28125 1016.441406 1775.28125 C 1020.039062 1775.28125 1022.960938 1772.359375 1022.960938 1768.769531 C 1022.960938 1765.171875 1020.039062 1762.25 1016.441406 1762.25 Z M 2127.789062 1772.828125 C 2124.199219 1772.828125 2121.28125 1775.75 2121.28125 1779.339844 C 2121.28125 1782.941406 2124.199219 1785.859375 2127.789062 1785.859375 C 2131.390625 1785.859375 2134.308594 1782.941406 2134.308594 1779.339844 C 2134.308594 1775.75 2131.390625 1772.828125 2127.789062 1772.828125 Z M 1029.039062 1785.210938 C 1025.441406 1785.210938 1022.519531 1788.121094 1022.519531 1791.71875 C 1022.519531 1795.320312 1025.441406 1798.230469 1029.039062 1798.230469 C 1032.628906 1798.230469 1035.550781 1795.320312 1035.550781 1791.71875 C 1035.550781 1788.121094 1032.628906 1785.210938 1029.039062 1785.210938 Z M 2114.75 1795.570312 C 2111.148438 1795.570312 2108.230469 1798.488281 2108.230469 1802.078125 C 2108.230469 1805.679688 2111.148438 1808.601562 2114.75 1808.601562 C 2118.339844 1808.601562 2121.261719 1805.679688 2121.261719 1802.078125 C 2121.261719 1798.488281 2118.339844 1795.570312 2114.75 1795.570312 Z M 1042.570312 1807.621094 C 1038.980469 1807.621094 1036.058594 1810.539062 1036.058594 1814.128906 C 1036.058594 1817.730469 1038.980469 1820.648438 1042.570312 1820.648438 C 1046.171875 1820.648438 1049.089844 1817.730469 1049.089844 1814.128906 C 1049.089844 1810.539062 1046.171875 1807.621094 1042.570312 1807.621094 Z M 2100.800781 1817.699219 C 2097.199219 1817.699219 2094.289062 1820.621094 2094.289062 1824.210938 C 2094.289062 1827.808594 2097.199219 1830.730469 2100.800781 1830.730469 C 2104.390625 1830.730469 2107.308594 1827.808594 2107.308594 1824.210938 C 2107.308594 1820.621094 2104.390625 1817.699219 2100.800781 1817.699219 Z M 1057.019531 1829.429688 C 1053.421875 1829.429688 1050.5 1832.351562 1050.5 1835.949219 C 1050.5 1839.539062 1053.421875 1842.460938 1057.019531 1842.460938 C 1060.609375 1842.460938 1063.53125 1839.539062 1063.53125 1835.949219 C 1063.53125 1832.351562 1060.609375 1829.429688 1057.019531 1829.429688 Z M 2085.929688 1839.261719 C 2082.328125 1839.261719 2079.410156 1842.171875 2079.410156 1845.769531 C 2079.410156 1849.371094 2082.328125 1852.28125 2085.929688 1852.28125 C 2089.519531 1852.28125 2092.441406 1849.371094 2092.441406 1845.769531 C 2092.441406 1842.171875 2089.519531 1839.261719 2085.929688 1839.261719 Z M 1072.371094 1850.660156 C 1068.769531 1850.660156 1065.859375 1853.570312 1065.859375 1857.171875 C 1065.859375 1860.769531 1068.769531 1863.679688 1072.371094 1863.679688 C 1075.960938 1863.679688 1078.878906 1860.769531 1078.878906 1857.171875 C 1078.878906 1853.570312 1075.960938 1850.660156 1072.371094 1850.660156 Z M 2070.179688 1860.171875 C 2066.589844 1860.171875 2063.671875 1863.089844 2063.671875 1866.679688 C 2063.671875 1870.28125 2066.589844 1873.191406 2070.179688 1873.191406 C 2073.78125 1873.191406 2076.699219 1870.28125 2076.699219 1866.679688 C 2076.699219 1863.089844 2073.78125 1860.171875 2070.179688 1860.171875 Z M 1088.570312 1871.199219 C 1084.980469 1871.199219 1082.058594 1874.121094 1082.058594 1877.710938 C 1082.058594 1881.308594 1084.980469 1884.230469 1088.570312 1884.230469 C 1092.171875 1884.230469 1095.089844 1881.308594 1095.089844 1877.710938 C 1095.089844 1874.121094 1092.171875 1871.199219 1088.570312 1871.199219 Z M 2053.589844 1880.410156 C 2049.988281 1880.410156 2047.070312 1883.320312 2047.070312 1886.921875 C 2047.070312 1890.519531 2049.988281 1893.429688 2053.589844 1893.429688 C 2057.179688 1893.429688 2060.101562 1890.519531 2060.101562 1886.921875 C 2060.101562 1883.320312 2057.179688 1880.410156 2053.589844 1880.410156 Z M 1105.628906 1891.070312 C 1102.03125 1891.070312 1099.109375 1893.988281 1099.109375 1897.589844 C 1099.109375 1901.179688 1102.03125 1904.101562 1105.628906 1904.101562 C 1109.21875 1904.101562 1112.140625 1901.179688 1112.140625 1897.589844 C 1112.140625 1893.988281 1109.21875 1891.070312 1105.628906 1891.070312 Z M 2036.160156 1899.949219 C 2032.570312 1899.949219 2029.648438 1902.871094 2029.648438 1906.460938 C 2029.648438 1910.058594 2032.570312 1912.980469 2036.160156 1912.980469 C 2039.761719 1912.980469 2042.679688 1910.058594 2042.679688 1906.460938 C 2042.679688 1902.871094 2039.761719 1899.949219 2036.160156 1899.949219 Z M 2043.050781 1659.359375 L 2035.980469 1677.171875 C 2031.039062 1688.941406 2025.671875 1700.460938 2019.871094 1711.738281 C 2017.480469 1717.710938 2007.851562 1734.039062 1990.988281 1760.710938 C 1969.839844 1792.21875 1945.449219 1820.890625 1917.828125 1846.730469 L 1962.140625 1915.578125 C 2029.910156 1855.25 2080.929688 1782.308594 2115.199219 1696.769531 Z M 1123.480469 1910.21875 C 1119.878906 1910.21875 1116.960938 1913.140625 1116.960938 1916.730469 C 1116.960938 1920.328125 1119.878906 1923.25 1123.480469 1923.25 C 1127.070312 1923.25 1129.988281 1920.328125 1129.988281 1916.730469 C 1129.988281 1913.140625 1127.070312 1910.21875 1123.480469 1910.21875 Z M 2017.949219 1918.75 C 2014.359375 1918.75 2011.441406 1921.671875 2011.441406 1925.269531 C 2011.441406 1928.859375 2014.359375 1931.78125 2017.949219 1931.78125 C 2021.550781 1931.78125 2024.46875 1928.859375 2024.46875 1925.269531 C 2024.46875 1921.671875 2021.550781 1918.75 2017.949219 1918.75 Z M 1142.109375 1928.609375 C 1138.511719 1928.609375 1135.589844 1931.519531 1135.589844 1935.121094 C 1135.589844 1938.71875 1138.511719 1941.628906 1142.109375 1941.628906 C 1145.699219 1941.628906 1148.621094 1938.71875 1148.621094 1935.121094 C 1148.621094 1931.519531 1145.699219 1928.609375 1142.109375 1928.609375 Z M 1578.519531 1019.148438 C 1833.820312 1019.148438 2040.78125 1226.109375 2040.78125 1481.410156 C 2040.78125 1736.710938 1833.820312 1943.671875 1578.519531 1943.671875 C 1323.21875 1943.671875 1116.261719 1736.710938 1116.261719 1481.410156 C 1116.261719 1226.109375 1323.21875 1019.148438 1578.519531 1019.148438 Z M 1578.519531 1014.308594 C 1320.539062 1014.308594 1111.410156 1223.429688 1111.410156 1481.410156 C 1111.410156 1739.390625 1320.539062 1948.519531 1578.519531 1948.519531 C 1836.5 1948.519531 2045.628906 1739.390625 2045.628906 1481.410156 C 2045.628906 1223.429688 1836.5 1014.308594 1578.519531 1014.308594 Z M 1998.980469 1936.789062 C 1995.378906 1936.789062 1992.46875 1939.699219 1992.46875 1943.300781 C 1992.46875 1946.898438 1995.378906 1949.808594 1998.980469 1949.808594 C 2002.570312 1949.808594 2005.488281 1946.898438 2005.488281 1943.300781 C 2005.488281 1939.699219 2002.570312 1936.789062 1998.980469 1936.789062 Z M 1161.480469 1946.210938 C 1157.890625 1946.210938 1154.96875 1949.128906 1154.96875 1952.730469 C 1154.96875 1956.320312 1157.890625 1959.238281 1161.480469 1959.238281 C 1165.078125 1959.238281 1168 1956.320312 1168 1952.730469 C 1168 1949.128906 1165.078125 1946.210938 1161.480469 1946.210938 Z M 1979.269531 1954.03125 C 1975.671875 1954.03125 1972.75 1956.941406 1972.75 1960.539062 C 1972.75 1964.140625 1975.671875 1967.058594 1979.269531 1967.058594 C 1982.859375 1967.058594 1985.78125 1964.140625 1985.78125 1960.539062 C 1985.78125 1956.941406 1982.859375 1954.03125 1979.269531 1954.03125 Z M 1181.570312 1963.011719 C 1177.96875 1963.011719 1175.058594 1965.921875 1175.058594 1969.519531 C 1175.058594 1973.121094 1177.96875 1976.03125 1181.570312 1976.03125 C 1185.160156 1976.03125 1188.078125 1973.121094 1188.078125 1969.519531 C 1188.078125 1965.921875 1185.160156 1963.011719 1181.570312 1963.011719 Z M 1958.878906 1970.429688 C 1955.28125 1970.429688 1952.359375 1973.339844 1952.359375 1976.941406 C 1952.359375 1980.53125 1955.28125 1983.449219 1958.878906 1983.449219 C 1962.46875 1983.449219 1965.390625 1980.53125 1965.390625 1976.941406 C 1965.390625 1973.339844 1962.46875 1970.429688 1958.878906 1970.429688 Z M 1202.320312 1978.941406 C 1198.730469 1978.941406 1195.808594 1981.859375 1195.808594 1985.460938 C 1195.808594 1989.058594 1198.730469 1991.96875 1202.320312 1991.96875 C 1205.921875 1991.96875 1208.839844 1989.058594 1208.839844 1985.460938 C 1208.839844 1981.859375 1205.921875 1978.941406 1202.320312 1978.941406 Z M 1177.410156 1769.589844 L 1109.328125 1813.109375 C 1162.378906 1889.179688 1229.960938 1949.289062 1312.070312 1993.429688 L 1349.039062 1921.628906 C 1279.789062 1884.230469 1222.578125 1833.550781 1177.410156 1769.589844 Z M 1937.808594 1985.980469 C 1934.210938 1985.980469 1931.289062 1988.890625 1931.289062 1992.488281 C 1931.289062 1996.089844 1934.210938 1999 1937.808594 1999 C 1941.410156 1999 1944.320312 1996.089844 1944.320312 1992.488281 C 1944.320312 1988.890625 1941.410156 1985.980469 1937.808594 1985.980469 Z M 1223.75 1994.03125 C 1220.148438 1994.03125 1217.230469 1996.941406 1217.230469 2000.542969 C 1217.230469 2004.136719 1220.148438 2007.054688 1223.75 2007.054688 C 1227.339844 2007.054688 1230.261719 2004.136719 1230.261719 2000.542969 C 1230.261719 1996.941406 1227.339844 1994.03125 1223.75 1994.03125 Z M 1916.121094 2000.636719 C 1912.53125 2000.636719 1909.609375 2003.550781 1909.609375 2007.148438 C 1909.609375 2010.746094 1912.53125 2013.660156 1916.121094 2013.660156 C 1919.71875 2013.660156 1922.640625 2010.746094 1922.640625 2007.148438 C 1922.640625 2003.550781 1919.71875 2000.636719 1916.121094 2000.636719 Z M 1245.730469 2008.183594 C 1242.140625 2008.183594 1239.21875 2011.097656 1239.21875 2014.695312 C 1239.21875 2018.292969 1242.140625 2021.207031 1245.730469 2021.207031 C 1249.328125 2021.207031 1252.25 2018.292969 1252.25 2014.695312 C 1252.25 2011.097656 1249.328125 2008.183594 1245.730469 2008.183594 Z M 1893.851562 2014.378906 C 1890.25 2014.378906 1887.339844 2017.292969 1887.339844 2020.890625 C 1887.339844 2024.488281 1890.25 2027.402344 1893.851562 2027.402344 C 1897.441406 2027.402344 1900.359375 2024.488281 1900.359375 2020.890625 C 1900.359375 2017.292969 1897.441406 2014.378906 1893.851562 2014.378906 Z M 1268.339844 2021.4375 C 1264.738281 2021.4375 1261.820312 2024.351562 1261.820312 2027.949219 C 1261.820312 2031.546875 1264.738281 2034.460938 1268.339844 2034.460938 C 1271.929688 2034.460938 1274.851562 2031.546875 1274.851562 2027.949219 C 1274.851562 2024.351562 1271.929688 2021.4375 1268.339844 2021.4375 Z M 1871 2027.199219 C 1867.398438 2027.199219 1864.480469 2030.113281 1864.480469 2033.710938 C 1864.480469 2037.308594 1867.398438 2040.222656 1871 2040.222656 C 1874.589844 2040.222656 1877.511719 2037.308594 1877.511719 2033.710938 C 1877.511719 2030.113281 1874.589844 2027.199219 1871 2027.199219 Z M 1291.429688 2033.714844 C 1287.828125 2033.714844 1284.921875 2036.628906 1284.921875 2040.226562 C 1284.921875 2043.824219 1287.828125 2046.738281 1291.429688 2046.738281 C 1295.03125 2046.738281 1297.941406 2043.824219 1297.941406 2040.226562 C 1297.941406 2036.628906 1295.03125 2033.714844 1291.429688 2033.714844 Z M 1847.679688 2039.027344 C 1844.089844 2039.027344 1841.171875 2041.941406 1841.171875 2045.539062 C 1841.171875 2049.136719 1844.089844 2052.050781 1847.679688 2052.050781 C 1851.28125 2052.050781 1854.199219 2049.136719 1854.199219 2045.539062 C 1854.199219 2041.941406 1851.28125 2039.027344 1847.679688 2039.027344 Z M 1882.070312 1877.121094 L 1866.21875 1888.871094 C 1833.898438 1911.828125 1799.050781 1930.710938 1761.660156 1945.488281 C 1730.160156 1956.859375 1710.988281 1963.070312 1704.140625 1964.121094 C 1691.019531 1967.488281 1677.699219 1970.320312 1664.191406 1972.621094 L 1667.859375 2053.804688 C 1764.738281 2038.246094 1850.761719 2002.058594 1925.910156 1945.238281 L 1925.898438 1945.238281 L 1925.910156 1945.238281 L 1925.898438 1945.238281 L 1925.910156 1945.238281 Z M 1315.039062 2045.03125 C 1311.441406 2045.03125 1308.53125 2047.949219 1308.53125 2051.542969 C 1308.53125 2055.140625 1311.441406 2058.058594 1315.039062 2058.058594 C 1318.640625 2058.058594 1321.558594 2055.140625 1321.558594 2051.542969 C 1321.558594 2047.949219 1318.640625 2045.03125 1315.039062 2045.03125 Z M 1391.078125 1941.609375 L 1354.019531 2013.597656 C 1377.261719 2023.636719 1401.230469 2032.128906 1425.929688 2039.070312 C 1438.28125 2042.53125 1450.789062 2045.585938 1463.449219 2048.226562 L 1482.558594 2051.875 C 1508.210938 2056.332031 1534.378906 2059.03125 1561.070312 2059.96875 C 1567.769531 2060.199219 1574.460938 2060.3125 1581.160156 2060.3125 C 1594.628906 2060.3125 1608.078125 2059.847656 1621.53125 2058.914062 L 1617.878906 1978.230469 C 1605.039062 1979.140625 1592.640625 1979.589844 1580.710938 1979.589844 C 1575.171875 1979.589844 1569.730469 1979.488281 1564.378906 1979.300781 C 1542.089844 1978.539062 1520.21875 1976.351562 1498.78125 1972.730469 C 1493.261719 1972.25 1477.460938 1968.78125 1451.390625 1962.320312 C 1430.699219 1956.679688 1410.601562 1949.769531 1391.078125 1941.609375 Z M 1823.828125 2049.902344 C 1820.230469 2049.902344 1817.308594 2052.820312 1817.308594 2056.417969 C 1817.308594 2060.015625 1820.230469 2062.929688 1823.828125 2062.929688 C 1827.421875 2062.929688 1830.339844 2060.015625 1830.339844 2056.417969 C 1830.339844 2052.820312 1827.421875 2049.902344 1823.828125 2049.902344 Z M 1339.109375 2055.351562 C 1335.511719 2055.351562 1332.589844 2058.269531 1332.589844 2061.867188 C 1332.589844 2065.460938 1335.511719 2068.378906 1339.109375 2068.378906 C 1342.699219 2068.378906 1345.621094 2065.460938 1345.621094 2061.867188 C 1345.621094 2058.269531 1342.699219 2055.351562 1339.109375 2055.351562 Z M 1799.621094 2059.738281 C 1796.019531 2059.738281 1793.109375 2062.65625 1793.109375 2066.253906 C 1793.109375 2069.847656 1796.019531 2072.765625 1799.621094 2072.765625 C 1803.21875 2072.765625 1806.128906 2069.847656 1806.128906 2066.253906 C 1806.128906 2062.65625 1803.21875 2059.738281 1799.621094 2059.738281 Z M 1363.550781 2064.644531 C 1359.949219 2064.644531 1357.039062 2067.5625 1357.039062 2071.15625 C 1357.039062 2074.753906 1359.949219 2077.671875 1363.550781 2077.671875 C 1367.140625 2077.671875 1370.058594 2074.753906 1370.058594 2071.15625 C 1370.058594 2067.5625 1367.140625 2064.644531 1363.550781 2064.644531 Z M 1774.960938 2068.578125 C 1771.359375 2068.578125 1768.441406 2071.492188 1768.441406 2075.089844 C 1768.441406 2078.6875 1771.359375 2081.601562 1774.960938 2081.601562 C 1778.558594 2081.601562 1781.46875 2078.6875 1781.46875 2075.089844 C 1781.46875 2071.492188 1778.558594 2068.578125 1774.960938 2068.578125 Z M 1388.449219 2072.9375 C 1384.859375 2072.9375 1381.941406 2075.851562 1381.941406 2079.449219 C 1381.941406 2083.046875 1384.859375 2085.960938 1388.449219 2085.960938 C 1392.050781 2085.960938 1394.96875 2083.046875 1394.96875 2079.449219 C 1394.96875 2075.851562 1392.050781 2072.9375 1388.449219 2072.9375 Z M 1749.96875 2076.363281 C 1746.378906 2076.363281 1743.460938 2079.28125 1743.460938 2082.878906 C 1743.460938 2086.476562 1746.378906 2089.390625 1749.96875 2089.390625 C 1753.570312 2089.390625 1756.480469 2086.476562 1756.480469 2082.878906 C 1756.480469 2079.28125 1753.570312 2076.363281 1749.96875 2076.363281 Z M 1413.53125 2080.132812 C 1409.929688 2080.132812 1407.019531 2083.050781 1407.019531 2086.644531 C 1407.019531 2090.242188 1409.929688 2093.160156 1413.53125 2093.160156 C 1417.128906 2093.160156 1420.039062 2090.242188 1420.039062 2086.644531 C 1420.039062 2083.050781 1417.128906 2080.132812 1413.53125 2080.132812 Z M 1724.699219 2083.09375 C 1721.109375 2083.09375 1718.191406 2086.011719 1718.191406 2089.605469 C 1718.191406 2093.203125 1721.109375 2096.121094 1724.699219 2096.121094 C 1728.300781 2096.121094 1731.21875 2093.203125 1731.21875 2089.605469 C 1731.21875 2086.011719 1728.300781 2083.09375 1724.699219 2083.09375 Z M 1439.019531 2086.304688 C 1435.429688 2086.304688 1432.511719 2089.222656 1432.511719 2092.820312 C 1432.511719 2096.414062 1435.429688 2099.332031 1439.019531 2099.332031 C 1442.621094 2099.332031 1445.539062 2096.414062 1445.539062 2092.820312 C 1445.539062 2089.222656 1442.621094 2086.304688 1439.019531 2086.304688 Z M 1699.070312 2088.78125 C 1695.46875 2088.78125 1692.558594 2091.699219 1692.558594 2095.296875 C 1692.558594 2098.890625 1695.46875 2101.808594 1699.070312 2101.808594 C 1702.671875 2101.808594 1705.578125 2098.890625 1705.578125 2095.296875 C 1705.578125 2091.699219 1702.671875 2088.78125 1699.070312 2088.78125 Z M 1464.660156 2091.390625 C 1461.058594 2091.390625 1458.140625 2094.304688 1458.140625 2097.902344 C 1458.140625 2101.5 1461.058594 2104.414062 1464.660156 2104.414062 C 1468.25 2104.414062 1471.171875 2101.5 1471.171875 2097.902344 C 1471.171875 2094.304688 1468.25 2091.390625 1464.660156 2091.390625 Z M 1673.410156 2093.363281 C 1669.808594 2093.363281 1666.890625 2096.277344 1666.890625 2099.875 C 1666.890625 2103.472656 1669.808594 2106.386719 1673.410156 2106.386719 C 1677 2106.386719 1679.921875 2103.472656 1679.921875 2099.875 C 1679.921875 2096.277344 1677 2093.363281 1673.410156 2093.363281 Z M 1490.511719 2095.40625 C 1486.910156 2095.40625 1484 2098.320312 1484 2101.917969 C 1484 2105.515625 1486.910156 2108.429688 1490.511719 2108.429688 C 1494.109375 2108.429688 1497.019531 2105.515625 1497.019531 2101.917969 C 1497.019531 2098.320312 1494.109375 2095.40625 1490.511719 2095.40625 Z M 1647.390625 2096.894531 C 1643.789062 2096.894531 1640.878906 2099.808594 1640.878906 2103.40625 C 1640.878906 2107.003906 1643.789062 2109.917969 1647.390625 2109.917969 C 1650.988281 2109.917969 1653.898438 2107.003906 1653.898438 2103.40625 C 1653.898438 2099.808594 1650.988281 2096.894531 1647.390625 2096.894531 Z M 1516.589844 2098.347656 C 1512.988281 2098.347656 1510.078125 2101.265625 1510.078125 2104.863281 C 1510.078125 2108.457031 1512.988281 2111.375 1516.589844 2111.375 C 1520.191406 2111.375 1523.101562 2108.457031 1523.101562 2104.863281 C 1523.101562 2101.265625 1520.191406 2098.347656 1516.589844 2098.347656 Z M 1621.398438 2099.328125 C 1617.800781 2099.328125 1614.878906 2102.246094 1614.878906 2105.84375 C 1614.878906 2109.4375 1617.800781 2112.355469 1621.398438 2112.355469 C 1624.988281 2112.355469 1627.910156 2109.4375 1627.910156 2105.84375 C 1627.910156 2102.246094 1624.988281 2099.328125 1621.398438 2099.328125 Z M 1542.589844 2100.199219 C 1539 2100.199219 1536.078125 2103.117188 1536.078125 2106.714844 C 1536.078125 2110.308594 1539 2113.226562 1542.589844 2113.226562 C 1546.191406 2113.226562 1549.109375 2110.308594 1549.109375 2106.714844 C 1549.109375 2103.117188 1546.191406 2100.199219 1542.589844 2100.199219 Z M 1595.261719 2100.695312 C 1591.671875 2100.695312 1588.75 2103.613281 1588.75 2107.207031 C 1588.75 2110.804688 1591.671875 2113.722656 1595.261719 2113.722656 C 1598.859375 2113.722656 1601.78125 2110.804688 1601.78125 2107.207031 C 1601.78125 2103.613281 1598.859375 2100.695312 1595.261719 2100.695312 Z M 1568.878906 2100.988281 C 1565.28125 2100.988281 1562.359375 2103.90625 1562.359375 2107.5 C 1562.359375 2111.097656 1565.28125 2114.015625 1568.878906 2114.015625 C 1572.46875 2114.015625 1575.390625 2111.097656 1575.390625 2107.5 C 1575.390625 2103.90625 1572.46875 2100.988281 1568.878906 2100.988281 Z M 1567.101562 759.558594 C 1566.691406 759.558594 1566.28125 759.570312 1565.878906 759.589844 L 1506.910156 762.699219 C 1506.238281 762.738281 1505.578125 762.800781 1504.921875 762.890625 L 1446.429688 771.03125 C 1445.78125 771.128906 1445.121094 771.25 1444.480469 771.390625 L 1386.898438 784.511719 C 1386.25 784.660156 1385.609375 784.839844 1384.980469 785.039062 L 1328.730469 803.03125 C 1328.101562 803.230469 1327.480469 803.460938 1326.859375 803.71875 L 1272.371094 826.460938 C 1271.75 826.710938 1271.148438 827 1270.558594 827.308594 L 1218.210938 854.621094 C 1217.621094 854.929688 1217.050781 855.269531 1216.480469 855.621094 L 1166.660156 887.320312 C 1166.101562 887.679688 1165.558594 888.058594 1165.03125 888.460938 L 1118.101562 924.308594 C 1117.570312 924.710938 1117.058594 925.128906 1116.570312 925.578125 L 1072.878906 965.308594 C 1072.390625 965.75 1071.910156 966.21875 1071.460938 966.710938 L 1031.328125 1010.03125 C 1030.878906 1010.519531 1030.449219 1011.019531 1030.039062 1011.550781 L 993.765625 1058.140625 C 993.355469 1058.660156 992.96875 1059.210938 992.609375 1059.761719 L 960.449219 1109.289062 C 960.085938 1109.851562 959.75 1110.421875 959.4375 1111 L 931.632812 1163.101562 C 931.320312 1163.691406 931.03125 1164.289062 930.769531 1164.898438 L 907.523438 1219.179688 C 907.261719 1219.789062 907.027344 1220.410156 906.820312 1221.050781 L 888.304688 1277.121094 C 888.09375 1277.75 887.914062 1278.390625 887.761719 1279.039062 L 874.109375 1336.488281 C 873.957031 1337.128906 873.828125 1337.789062 873.730469 1338.441406 L 865.046875 1396.859375 C 864.949219 1397.511719 864.878906 1398.171875 864.835938 1398.839844 L 861.179688 1457.769531 C 861.136719 1458.441406 861.125 1459.101562 861.140625 1459.769531 L 862.539062 1518.800781 C 862.554688 1519.460938 862.597656 1520.128906 862.671875 1520.789062 L 869.117188 1579.488281 C 869.1875 1580.148438 869.289062 1580.808594 869.417969 1581.460938 L 880.859375 1639.390625 C 880.988281 1640.03125 881.140625 1640.679688 881.324219 1641.308594 L 897.371094 1697.128906 C 897.550781 1697.761719 897.757812 1698.378906 897.992188 1698.988281 L 918.679688 1753.269531 C 918.914062 1753.871094 919.171875 1754.480469 919.453125 1755.058594 L 944.636719 1807.410156 C 944.921875 1807.988281 945.230469 1808.570312 945.558594 1809.128906 L 975.058594 1859.171875 C 975.390625 1859.730469 975.746094 1860.28125 976.121094 1860.808594 L 1009.730469 1908.191406 C 1010.109375 1908.71875 1010.5 1909.238281 1010.929688 1909.738281 L 1048.398438 1954.121094 C 1048.820312 1954.621094 1049.261719 1955.101562 1049.71875 1955.558594 L 1090.800781 1996.628906 C 1091.261719 1997.089844 1091.738281 1997.53125 1092.238281 1997.960938 L 1136.621094 2035.425781 C 1137.121094 2035.84375 1137.640625 2036.246094 1138.171875 2036.625 L 1185.550781 2070.222656 C 1186.078125 2070.601562 1186.628906 2070.957031 1187.191406 2071.289062 L 1237.230469 2100.785156 C 1237.789062 2101.117188 1238.371094 2101.421875 1238.960938 2101.707031 L 1291.300781 2126.886719 C 1291.890625 2127.167969 1292.488281 2127.425781 1293.101562 2127.660156 L 1347.378906 2148.34375 C 1347.980469 2148.578125 1348.609375 2148.785156 1349.230469 2148.964844 L 1405.058594 2165.007812 C 1405.679688 2165.191406 1406.320312 2165.34375 1406.960938 2165.472656 L 1463.941406 2176.761719 C 1464.578125 2176.886719 1465.21875 2176.988281 1465.871094 2177.0625 L 1523.601562 2183.515625 C 1524.25 2183.589844 1524.898438 2183.632812 1525.550781 2183.652344 L 1583.609375 2185.226562 C 1583.820312 2185.234375 1584.039062 2185.234375 1584.238281 2185.234375 C 1584.691406 2185.234375 1585.128906 2185.222656 1585.570312 2185.199219 L 1643.558594 2181.882812 C 1644.21875 2181.84375 1644.859375 2181.78125 1645.511719 2181.6875 L 1703.019531 2173.503906 C 1703.660156 2173.410156 1704.308594 2173.292969 1704.941406 2173.148438 L 1761.550781 2160.152344 C 1762.191406 2160.007812 1762.820312 2159.832031 1763.441406 2159.632812 L 1818.761719 2141.921875 C 1819.378906 2141.722656 1820 2141.5 1820.601562 2141.246094 L 1874.230469 2118.945312 C 1874.828125 2118.691406 1875.429688 2118.417969 1876 2118.117188 L 1927.570312 2091.378906 C 1928.148438 2091.078125 1928.71875 2090.753906 1929.269531 2090.402344 L 1978.398438 2059.421875 C 1978.949219 2059.074219 1979.488281 2058.703125 1980.011719 2058.308594 L 2026.359375 2023.300781 C 2036.609375 2015.5625 2038.640625 2000.972656 2030.898438 1990.71875 C 2026.328125 1984.671875 2019.371094 1981.480469 2012.320312 1981.480469 C 2007.441406 1981.480469 2002.519531 1983.011719 1998.320312 1986.179688 L 1952.75 2020.597656 L 1905.289062 2050.53125 L 1855.460938 2076.367188 L 1803.640625 2097.917969 L 1750.191406 2115.03125 L 1695.488281 2127.585938 L 1639.929688 2135.496094 L 1583.898438 2138.699219 L 1527.789062 2137.175781 L 1472.019531 2130.9375 L 1416.960938 2120.03125 L 1363.03125 2104.527344 L 1310.578125 2084.539062 L 1260.011719 2060.210938 L 1211.660156 2031.710938 L 1165.878906 1999.25 L 1123 1963.039062 L 1083.308594 1923.359375 L 1047.101562 1880.480469 L 1014.628906 1834.699219 L 986.132812 1786.351562 L 961.800781 1735.78125 L 941.808594 1683.339844 L 926.304688 1629.410156 L 915.25 1573.421875 L 909.023438 1516.699219 L 907.671875 1459.660156 L 911.207031 1402.710938 L 919.597656 1346.269531 L 932.789062 1290.761719 L 950.679688 1236.578125 L 973.140625 1184.121094 L 1000.011719 1133.789062 L 1031.078125 1085.929688 L 1066.140625 1040.910156 L 1104.910156 999.058594 L 1147.128906 960.671875 L 1192.46875 926.03125 L 1240.609375 895.410156 L 1291.199219 869.011719 L 1343.859375 847.03125 L 1398.199219 829.648438 L 1453.839844 816.96875 L 1510.351562 809.109375 L 1567.328125 806.101562 L 1624.359375 807.980469 L 1682 814.851562 C 1682.941406 814.960938 1683.871094 815.019531 1684.789062 815.019531 C 1696.398438 815.019531 1706.441406 806.328125 1707.851562 794.511719 C 1709.378906 781.75 1700.269531 770.179688 1687.511719 768.660156 L 1628.871094 761.671875 C 1628.210938 761.589844 1627.550781 761.539062 1626.890625 761.519531 L 1567.871094 759.570312 C 1567.609375 759.558594 1567.359375 759.558594 1567.101562 759.558594 Z M 120.957031 2145.558594 L 457.375 2145.558594 L 457.375 2237.242188 L 120.957031 2237.242188 Z M 1071.53125 2045.242188 C 1067.910156 2045.242188 1064.289062 2046.625 1061.519531 2049.390625 L 945.667969 2165.242188 L 485.691406 2165.242188 L 485.691406 2131.402344 C 485.691406 2123.582031 479.351562 2117.242188 471.53125 2117.242188 L 106.800781 2117.242188 C 103.042969 2117.242188 99.441406 2118.734375 96.789062 2121.386719 C 94.132812 2124.042969 92.640625 2127.644531 92.640625 2131.398438 L 92.640625 2251.402344 C 92.640625 2255.15625 94.132812 2258.757812 96.789062 2261.414062 C 99.441406 2264.066406 103.042969 2265.558594 106.800781 2265.558594 L 471.53125 2265.558594 C 479.351562 2265.558594 485.691406 2259.21875 485.691406 2251.398438 L 485.691406 2193.558594 L 951.53125 2193.558594 C 955.285156 2193.558594 958.886719 2192.066406 961.542969 2189.410156 L 1081.539062 2069.410156 C 1087.070312 2063.882812 1087.070312 2054.917969 1081.539062 2049.390625 C 1078.78125 2046.625 1075.160156 2045.242188 1071.53125 2045.242188 Z M 1664.96875 593.460938 L 1672.53125 607.859375 L 1716.75 695.910156 C 1843.550781 716.609375 1961.589844 769.339844 2070.890625 854.089844 C 2140.980469 909.980469 2199.808594 975.941406 2247.351562 1051.949219 C 2294.710938 1128.070312 2328.070312 1209.910156 2347.429688 1297.441406 C 2356.980469 1340.921875 2362.789062 1384.878906 2364.828125 1429.339844 C 2370.460938 1452.429688 2365.121094 1518.121094 2348.820312 1626.398438 C 2339.839844 1668.910156 2327.398438 1710.398438 2311.511719 1750.839844 C 2266 1849.28125 2234.929688 1906.210938 2218.289062 1921.648438 C 2167.039062 1992.578125 2105.660156 2053.261719 2034.148438 2103.695312 C 1962.519531 2153.960938 1884.671875 2191.230469 1800.601562 2215.5 C 1703.398438 2236.695312 1623.691406 2247.292969 1561.480469 2247.292969 C 1528.558594 2247.292969 1500.539062 2244.328125 1477.410156 2238.394531 L 1324.460938 2301.328125 C 1413.761719 2327.640625 1501.660156 2340.796875 1588.140625 2340.796875 C 1738.878906 2340.796875 1885.339844 2300.832031 2027.511719 2220.90625 C 2246.570312 2087.867188 2384.71875 1896.03125 2441.988281 1645.390625 C 2491.71875 1389.269531 2439.730469 1154.230469 2286.03125 940.269531 C 2119.769531 731.828125 1912.75 616.21875 1664.980469 593.460938 Z M 1664.96875 593.460938 "/>
</svg>
